
        <svg xmlns="http://www.w3.org/2000/svg" xmlns:xlink="http://www.w3.org/1999/xlink" version="1.1" width="3151.615906370528" 
        height="770.2088043622822" viewBox="0 0 3151.615906370528 770.2088043622822">
			<rect fill="#233142" width="3151.615906370528" height="770.2088043622822"/>
			<g transform="scale(7.5807953185264) translate(10, 10)">
				<defs id="SvgjsDefs3356"><linearGradient id="SvgjsLinearGradient3363"><stop id="SvgjsStop3364" stop-color="#006838" offset="0"></stop><stop id="SvgjsStop3365" stop-color="#96cf24" offset="1"></stop></linearGradient></defs><g id="SvgjsG3357" featureKey="symbolContainer" transform="matrix(0.85,0,0,0.85,0,0)" fill="url(#SvgjsLinearGradient3363)"><rect width="95" height="96" rx="8"></rect></g><g id="SvgjsG3358" featureKey="symbolFeature-0" transform="matrix(2.763157894736842,0,0,2.763157894736842,7.473684210526316,7.997546207037215)" fill="#233142"><path xmlns="http://www.w3.org/2000/svg" d="M21.119,6.594c-0.56-0.477-1.303-0.677-2.035-0.562C17.896,6.227,17,7.333,17,8.606v2.893  c0,0.276-0.225,0.5-0.5,0.5h-1c-0.275,0-0.5-0.224-0.5-0.5v-7.83c0-1.925-1.486-3.569-3.313-3.665  C10.727-0.035,9.795,0.293,9.091,0.96C8.388,1.628,8,2.529,8,3.499v4c0,0.276-0.225,0.5-0.5,0.5S7,7.775,7,7.499V5.606  c0-1.273-0.896-2.379-2.084-2.573C4.187,2.918,3.441,3.118,2.881,3.594C2.321,4.07,2,4.765,2,5.499v4c0,1.93,1.57,3.5,3.5,3.5H8  v10.5c0,0.276,0.224,0.5,0.5,0.5H10v-13H6.5c-1.379,0-2.5-1.122-2.5-2.5v-3c0-0.276,0.224-0.5,0.5-0.5S5,5.223,5,5.499v3  c0,0.827,0.673,1.5,1.5,1.5H10v-6.5c0-0.276,0.224-0.5,0.5-0.5s0.5,0.224,0.5,0.5v20.5h1v-20.5c0-0.276,0.224-0.5,0.5-0.5  s0.5,0.224,0.5,0.5v10.5h4.5c0.827,0,1.5-0.673,1.5-1.5v-4c0-0.276,0.224-0.5,0.5-0.5s0.5,0.224,0.5,0.5v4  c0,1.378-1.121,2.5-2.5,2.5H13v9h1.5c0.276,0,0.5-0.224,0.5-0.5v-6.5h3.5c1.93,0,3.5-1.57,3.5-3.5v-5  C22,7.765,21.679,7.07,21.119,6.594z"></path></g><g id="SvgjsG3359" featureKey="nameFeature-0" transform="matrix(0.8845112569039598,0,0,0.8845112569039598,100.2570113582126,19.1548874309604)" fill="#ffffff"><path d="M33.96 10.879999999999999 l-32 0 c-0.74668 0 -1.12 0.37332 -1.12 1.12 s0.37332 1.12 1.12 1.12 l14.88 0 l0 22.88 c0 0.74668 0.37332 1.12 1.12 1.12 s1.12 -0.37332 1.12 -1.12 l0 -22.88 l14.88 0 c0.74668 0 1.12 -0.37332 1.12 -1.12 s-0.37332 -1.12 -1.12 -1.12 z M79.5 25.119999999999997 c0.74668 0 1.12 -0.37332 1.12 -1.12 s-0.37332 -1.12 -1.12 -1.12 l-30.88 0 l0 -9.76 l30.88 0 c0.74668 0 1.12 -0.37332 1.12 -1.12 s-0.37332 -1.12 -1.12 -1.12 l-33.12 0 l0 26.24 l33.12 0 c0.74668 0 1.12 -0.37332 1.12 -1.12 s-0.37332 -1.12 -1.12 -1.12 l-30.88 0 l0 -9.76 l30.88 0 z M125.16000000000001 16.28 c-1.6267 -1.8933 -3.7467 -3.3733 -6.36 -4.44 s-5.4 -1.6 -8.36 -1.6 c-4.88 0 -9.04 1.3067 -12.48 3.92 c-3.5467 2.6933 -5.32 5.9732 -5.32 9.84 s1.7733 7.1468 5.32 9.84 c3.44 2.6133 7.6 3.92 12.48 3.92 c2.96 0 5.7468 -0.53332 8.36 -1.6 s4.7332 -2.5467 6.36 -4.44 l0 0 c0.48 -0.58668 0.45332 -1.1067 -0.08 -1.56 c-0.21332 -0.18668 -0.46664 -0.28 -0.75996 -0.28 c-0.32 0 -0.58668 0.12 -0.8 0.36 l0 0 c-1.4667 1.6533 -3.3534 2.9533 -5.66 3.9 s-4.78 1.42 -7.42 1.42 c-4.2932 0 -7.96 -1.1333 -11 -3.4 s-4.56 -4.9868 -4.56 -8.16 s1.52 -5.8932 4.56 -8.16 s6.7068 -3.4 11 -3.4 c2.64 0 5.1132 0.47332 7.42 1.42 s4.1932 2.2467 5.66 3.9 l0 0 c0.21332 0.24 0.48 0.36 0.8 0.36 c0.29332 0 0.54664 -0.09332 0.75996 -0.28 c0.53332 -0.45332 0.56 -0.97332 0.08 -1.56 z M170.86 11.120000000000001 c-0.74668 0 -1.12 0.37332 -1.12 1.12 l0 21.76 l-32 -24 l0 26.24 c0 0.72 0.37332 1.08 1.12 1.08 s1.12 -0.36 1.12 -1.08 l0 -21.8 l32 24 l0 -26.2 c0 -0.74668 -0.37332 -1.12 -1.12 -1.12 z M226.36 35.28 l-21.52 -25 l-20.84 25 c-0.16 0.18668 -0.24 0.41336 -0.24 0.68004 c0 0.77332 0.38668 1.16 1.16 1.16 c0.32 0 0.58668 -0.13332 0.8 -0.4 l0 0 l6.32 -7.6 l26.08 0 l6.56 7.6 c0.24 0.26668 0.53332 0.4 0.88 0.4 c0.72 0 1.08 -0.36 1.08 -1.08 c0 -0.29332 -0.09332 -0.54664 -0.28 -0.75996 z M193.92000000000002 26.880000000000003 l10.96 -13.16 l11.36 13.16 l-22.32 0 z M272.66 35.08 l-8.96 -5.96 l0.32 0 c2.5333 0 4.6868 -0.89332 6.46 -2.68 s2.66 -3.9334 2.66 -6.44 c0 -2.5333 -0.88668 -4.6868 -2.66 -6.46 s-3.9266 -2.66 -6.46 -2.66 l-25.12 0 l0 25.12 c0 0.74668 0.37332 1.12 1.12 1.12 s1.12 -0.37332 1.12 -1.12 l0 -6.88 l18.56 0 l11.72 7.8 c0.18668 0.13332 0.38668 0.2 0.6 0.2 c0.4 0 0.70668 -0.17332 0.92 -0.52 c0.13332 -0.18668 0.2 -0.38668 0.2 -0.6 c0 -0.4 -0.16 -0.70668 -0.48 -0.92 z M241.14000000000001 13.120000000000001 l22.88 0 c1.8933 0 3.5133 0.67332 4.86 2.02 s2.02 2.9667 2.02 4.86 s-0.67332 3.5133 -2.02 4.86 s-2.9667 2.02 -4.86 2.02 l-22.88 0 l0 -13.76 z M285.76 12.239999999999998 l0 24 c0 0.72 0.36 1.08 1.08 1.08 c0.74668 0 1.12 -0.36 1.12 -1.08 l0 0 l0 -24 c0 -0.74668 -0.37332 -1.12 -1.12 -1.12 c-0.72 0 -1.08 0.37332 -1.08 1.12 z M332.94 10.879999999999999 l-32 0 c-0.74668 0 -1.12 0.37332 -1.12 1.12 s0.37332 1.12 1.12 1.12 l14.88 0 l0 22.88 c0 0.74668 0.37332 1.12 1.12 1.12 s1.12 -0.37332 1.12 -1.12 l0 -22.88 l14.88 0 c0.74668 0 1.12 -0.37332 1.12 -1.12 s-0.37332 -1.12 -1.12 -1.12 z"></path></g>
			</g>
		</svg>
	